
<svg xmlns="http://www.w3.org/2000/svg" version="1.1"  height="550" width="550">
	<path d="M485.61981485368943 390.0621292650087 L275 515 L67.15390309173469 394.99999999999994 L67.15390309173466 155.00000000000006 L274.99999999999994 35 L482.8460969082652 154.9999999999999 L482.8460969082653 395 Z" stroke="none" fill="#D0D0D0"/>
	<path d="M327.65495371342234 303.7655323162522 L275 335 L223.03847577293368 305 L223.03847577293368 245.00000000000003 L275 215 L326.9615242270663 244.99999999999997 L326.9615242270663 305 Z" stroke="none" fill="#FFFFFF"/> 
	<path d=" M67.15390309173466 155.00000000000006 L67.15390309173466 395.00000000000006 M119.11542731880097 125.00000000000003 L119.11542731880097 425 M171.07695154586727 95 L171.07695154586727 455 M223.03847577293357 64.99999999999997 L223.03847577293357 485 M274.9999999999999 34.99999999999994 L274.9999999999999 214.99999999999994 M274.9999999999999 334.99999999999994 L274.9999999999999 515 M326.9615242270662 64.99999999999994 L326.9615242270662 484.99999999999994 M378.9230484541325 94.99999999999994 L378.9230484541325 454.99999999999994 M430.88457268119885 124.99999999999994 L430.88457268119885 424.99999999999994 M482.84609690826517 154.99999999999994 L482.84609690826517 394.99999999999994 M274.9999999999999 34.99999999999994 L482.84609690826517 154.99999999999994 M223.03847577293357 64.99999999999997 L482.84609690826517 214.99999999999994 M171.07695154586727 95 L482.84609690826517 274.99999999999994 M119.11542731880097 125.00000000000003 L482.84609690826517 334.99999999999994 M67.15390309173466 155.00000000000006 L223.03847577293357 244.99999999999997 M326.9615242270662 304.99999999999994 L482.84609690826517 394.99999999999994 M67.15390309173466 215.00000000000006 L430.88457268119885 424.99999999999994 M67.15390309173466 275.00000000000006 L378.9230484541325 454.99999999999994 M67.15390309173466 335.00000000000006 L326.9615242270662 484.99999999999994 M67.15390309173466 395.00000000000006 L274.9999999999999 515 M274.9999999999999 34.99999999999994 L67.15390309173466 155.00000000000006 M326.9615242270662 64.99999999999994 L67.15390309173466 215.00000000000006 M378.9230484541325 94.99999999999994 L67.15390309173466 275.00000000000006 M430.88457268119885 124.99999999999994 L67.15390309173466 335.00000000000006 M482.84609690826517 154.99999999999994 L326.9615242270662 244.99999999999994 M223.03847577293357 305 L67.15390309173466 395.00000000000006 M482.84609690826517 214.99999999999994 L119.11542731880097 425 M482.84609690826517 274.99999999999994 L171.07695154586727 455 M482.84609690826517 334.99999999999994 L223.03847577293357 485 M482.84609690826517 394.99999999999994 L274.9999999999999 515"  stroke="black" fill="none"/> 
	<circle cx="171.07695154586727" cy="335" r="20"   stroke="#D0D0D0" stroke-width="3" fill="#000000" />   
	<circle cx="171.07695154586727" cy="335" r="14" stroke="none" stroke-width="3" fill="#D0D0D0" />   
	<circle cx="171.07695154586727" cy="335" r="10" stroke="none" stroke-width="3" fill="#000000" />   
	<circle cx="171.07695154586727" cy="335" r="6" stroke="none" stroke-width="3" fill="#D0D0D0" />   
	<circle id="attacker" cx="171.07695154586727" cy="95" r="20" stroke="#D0D0D0" stroke-width="3" fill="#FFFFFF" >
		<animateTransform attributeName="transform" attributeType="XML" type="translate" dur="7s" repeatCount="indefinite" values="0 0;0 0;0 240;0 240;0 240;0 240;0 240;0 240" ng-switch-when="true"/>
	</circle>	
	<g>
		<circle cx="223.03847577293357" cy="365" r="20" stroke="#D0D0D0" stroke-width="3" fill="#FFFFFF" />   
		<circle cx="223.03847577293357" cy="365" r="14" stroke="none" stroke-width="3" fill="#D0D0D0" />   
		<circle cx="223.03847577293357" cy="365" r="10" stroke="none" stroke-width="3" fill="#FFFFFF" />   
		<circle cx="223.03847577293357" cy="365" r="6" stroke="none" stroke-width="3" fill="#D0D0D0" />  
		<path id="arc1" fill="#D0D0D0" stroke="#000000" stroke-width="0" d="M 226.78088620765323 347.3933431867915 A 18 18 0 0 0 219.2960653382139 347.39334318679147 L 223.03847577293357 365 L 226.78088620765323 347.3933431867915" visibility="hidden">
			<animate attributeType="XML" attributeName="visibility" from="hidden" to="visible" dur="7s"  repeatCount="indefinite"/>
		</path>
		<path id="arc2" fill="#D0D0D0" stroke="#000000" stroke-width="0" d="M 219.2960653382139 382.60665681320853 A 18 18 0 0 0 226.78088620765323 382.6066568132085 L 223.03847577293357 365 L 219.2960653382139 382.60665681320853" visibility="hidden">
			<animate attributeType="XML" attributeName="visibility" from="hidden" to="visible" dur="7s"  repeatCount="indefinite"/>
		</path>
		<animateTransform attributeName="transform" attributeType="XML" type="translate" dur="7s" repeatCount="indefinite" values="0 0;0 0;0 0;-52 -30;-52 -30;-52 -30;-52 -30;" ng-switch-when="true"/>
	</g>
</svg>